<?xml version="1.0" encoding="UTF-8" standalone="no"?>
<!-- Created with Inkscape (http://www.inkscape.org/) -->

<svg
   xmlns:dc="http://purl.org/dc/elements/1.1/"
   xmlns:cc="http://creativecommons.org/ns#"
   xmlns:rdf="http://www.w3.org/1999/02/22-rdf-syntax-ns#"
   xmlns:svg="http://www.w3.org/2000/svg"
   xmlns="http://www.w3.org/2000/svg"
   xmlns:sodipodi="http://sodipodi.sourceforge.net/DTD/sodipodi-0.dtd"
   xmlns:inkscape="http://www.inkscape.org/namespaces/inkscape"
   width="200mm"
   height="162.70387mm"
   viewBox="0 0 200 162.70387"
   version="1.1"
   id="svg8"
   inkscape:version="0.92.4 (5da689c313, 2019-01-14)"
   sodipodi:docname="trollface.svg">
  <defs
     id="defs2" />
  <sodipodi:namedview
     id="base"
     pagecolor="#ffffff"
     bordercolor="#666666"
     borderopacity="1.0"
     inkscape:pageopacity="0.0"
     inkscape:pageshadow="2"
     inkscape:zoom="0.35"
     inkscape:cx="378.22758"
     inkscape:cy="547.89772"
     inkscape:document-units="mm"
     inkscape:current-layer="layer1"
     showgrid="false"
     fit-margin-top="0"
     fit-margin-left="0"
     fit-margin-right="0"
     fit-margin-bottom="0"
     inkscape:window-width="1920"
     inkscape:window-height="1017"
     inkscape:window-x="-8"
     inkscape:window-y="-8"
     inkscape:window-maximized="1" />
  <metadata
     id="metadata5">
    <rdf:RDF>
      <cc:Work
         rdf:about="">
        <dc:format>image/svg+xml</dc:format>
        <dc:type
           rdf:resource="http://purl.org/dc/dcmitype/StillImage" />
        <dc:title></dc:title>
      </cc:Work>
    </rdf:RDF>
  </metadata>
  <g
     inkscape:label="Vrstva 1"
     inkscape:groupmode="layer"
     id="layer1"
     transform="translate(-5.7606203,-131.09406)">
    <path
       style="fill:#000000;stroke-width:0.07533964"
       d="m 149.20719,293.731 c -4.74026,-0.13226 -7.91621,-0.48503 -12.21768,-1.35709 -1.90035,-0.38528 -3.02629,-0.64626 -7.49866,-1.73807 -10.42017,-2.54381 -16.17069,-3.77772 -18.91026,-4.05765 -0.8738,-0.0893 -1.65119,-0.29969 -3.19021,-0.86342 -3.64994,-1.33698 -9.085173,-3.75764 -15.569355,-6.93404 -9.0413,-4.42905 -16.16534,-7.73741 -20.205525,-9.3833 -2.494351,-1.01616 -3.793616,-1.61248 -6.653055,-3.05354 -8.321621,-4.19384 -17.483017,-9.65107 -20.708743,-12.33573 -3.627626,-3.01916 -9.831341,-8.98686 -11.794723,-11.34601 -2.671836,-3.21042 -4.139944,-5.52219 -6.326814,-9.96256 -1.423723,-2.89082 -2.1495,-4.18208 -3.459053,-6.15408 -1.681927,-2.53275 -2.773391,-3.85113 -5.437314,-6.56772 -3.316464,-3.38206 -5.946448,-6.55864 -8.1792308,-9.87917 -2.2823085,-3.39417 -2.8806346,-4.89573 -3.1633174,-7.93866 -0.1264129,-1.36079 -0.1806284,-8.4183 -0.081129,-10.55457 0.2089586,-4.48419 0.7151891,-5.94397 3.3156755,-9.56112 1.8063147,-2.51248 5.4748247,-6.44987 9.6890717,-10.39919 3.854188,-3.61189 5.248722,-5.18577 7.140685,-8.05902 0.972855,-1.47743 1.57172,-2.56758 3.269583,-5.95183 2.41909,-4.8218 3.790483,-7.235 5.972653,-10.50988 2.363078,-3.54638 3.650119,-5.09249 6.482665,-7.78764 4.155062,-3.9535 8.045733,-6.53189 10.973329,-7.27212 1.785139,-0.45137 4.73374,-0.70096 9.895745,-0.83764 4.788823,-0.12682 28.175837,-0.17998 36.426717,-0.0828 17.044455,0.20071 29.379985,0.64742 35.748665,1.2946 9.5841,0.97391 20.55215,2.69383 26.86121,4.21215 8.02115,1.93034 14.71404,5.11948 21.61985,10.30176 3.77134,2.83013 5.84902,5.04965 7.05516,7.53687 0.53503,1.1033 0.73374,1.95751 0.81919,3.52142 0.0925,1.69345 0.19484,2.56247 0.45735,3.88399 0.34792,1.75161 0.88105,3.4271 1.36265,4.28253 1.01378,1.80071 2.70785,3.61525 4.56797,4.89282 1.37926,0.94729 2.47607,1.91932 3.5841,3.17636 1.35886,1.54159 2.12366,2.64885 2.89191,4.18678 1.40299,2.80862 1.72098,4.79179 1.79908,11.22018 0.0777,6.3979 -0.1257,8.72989 -0.9858,11.30094 -0.6076,1.8163 -1.05215,2.76024 -4.16904,8.85241 -1.4877,2.9078 -1.87398,3.76558 -2.39201,5.31172 -0.60554,1.80738 -0.89539,3.43284 -1.1083,6.21524 -0.12807,1.67392 -0.126,19.56022 0.003,24.33471 0.24542,9.09514 0.45916,14.07792 0.81119,18.91026 0.54751,7.51582 0.54684,9.14145 -0.005,11.03725 -0.4318,1.48447 -2.00222,4.30814 -3.58256,6.44154 -1.22203,1.6497 -3.05442,3.66262 -4.21554,4.63089 -1.88608,1.57282 -6.44963,4.18935 -9.26678,5.31312 -2.38957,0.95323 -4.61034,1.34412 -8.99785,1.58372 -3.54346,0.19352 -17.65784,0.28435 -22.62977,0.14562 z m 18.70688,-3.38692 c 5.38992,-0.26536 8.51104,-1.11019 13.74948,-3.72172 3.27487,-1.63263 4.78585,-2.74036 7.03241,-5.1556 1.45181,-1.56081 2.55321,-3.02045 3.42355,-4.5371 1.15706,-2.01626 1.74092,-3.4578 1.90519,-4.70384 0.1231,-0.93377 0.045,-4.02909 -0.15209,-6.02717 -0.37281,-3.77982 -0.48062,-5.31813 -0.6415,-9.15377 -0.36939,-8.80781 -0.37782,-9.32573 -0.37874,-23.27994 -8.5e-4,-14.31133 0.005,-14.58756 0.3817,-17.17744 0.30943,-2.12851 0.77643,-3.75475 1.65505,-5.76349 0.34132,-0.78033 1.65808,-3.41595 2.97355,-5.95182 1.40203,-2.70275 2.50371,-5.25058 2.96449,-6.85591 0.54789,-1.90883 0.7281,-3.57629 0.73074,-6.76164 0.003,-3.19485 -0.16098,-5.19516 -0.60909,-7.44589 -0.46594,-2.34032 -0.89,-3.24612 -2.36039,-5.04175 -0.79067,-0.96556 -3.18166,-3.31745 -4.45616,-4.38327 -1.85187,-1.54868 -3.79774,-3.64851 -4.8047,-5.18486 -0.43864,-0.66926 -1.11561,-2.03587 -1.32871,-2.6823 -0.5655,-1.7154 -1.06087,-4.43442 -1.06197,-5.82883 -0.002,-2.25377 -1.07488,-5.21285 -2.4626,-6.79054 -2.8235,-3.20999 -11.32229,-8.41133 -18.14234,-11.10328 -3.58776,-1.41612 -5.57893,-1.82686 -10.47222,-2.16024 -1.68495,-0.11478 -7.9672,-0.11087 -10.24618,0.006 -4.32533,0.22255 -10.87984,0.17678 -15.40697,-0.10759 -3.28002,-0.20604 -7.75507,-0.57224 -8.28735,-0.67819 -0.26476,-0.0527 -5.1166,-0.60217 -7.68464,-0.87029 -3.90898,-0.40812 -7.89552,-0.74757 -11.60231,-0.98793 -1.9404,-0.12582 -6.531296,-0.12851 -7.797651,-0.005 -3.821178,0.374 -7.629393,1.02127 -10.509888,1.78633 -8.4117,2.23418 -22.481966,9.16381 -30.211188,14.87907 -2.440754,1.80478 -4.609512,3.14622 -5.152545,3.187 -0.34568,0.0259 -0.313358,-0.13709 0.117861,-0.59463 2.263778,-2.40189 14.536771,-10.3939 20.667659,-13.45848 4.116274,-2.05758 11.366139,-4.61548 15.957479,-5.63016 2.237514,-0.49448 5.450536,-0.94511 8.07586,-1.13266 1.902092,-0.13587 6.164507,-0.17513 8.814743,-0.0811 5.01432,0.17776 8.36528,0.45304 11.90639,0.97811 5.04199,0.74763 16.10726,1.52002 26.02712,1.81678 5.07881,0.15194 7.65112,0.0442 8.16827,-0.34222 0.14258,-0.10652 0.14258,-0.11027 0,-0.26793 -1.60444,-1.77407 -20.80066,-3.26861 -48.3243,-3.76231 -5.535156,-0.0993 -28.503764,-0.0982 -33.681736,0.002 -10.781673,0.2078 -12.52031,0.52221 -16.499624,2.98371 -2.334897,1.44431 -5.734965,4.42621 -8.024348,7.03745 -2.697711,3.07697 -6.065377,8.55607 -8.876887,14.4424 -1.697794,3.55461 -2.66035,5.38961 -3.936475,7.50435 -0.865751,1.43468 -1.351125,2.11091 -2.194703,3.05766 -1.057656,1.18702 -1.190725,1.55042 -0.650366,1.7762 0.550686,0.23009 2.168389,0.3262 7.640589,0.45393 1.056638,0.0247 2.051556,0.0638 2.210909,0.0869 0.703055,0.1021 0.06626,0.19889 -3.642355,0.55362 -5.208547,0.49819 -9.213137,1.25204 -10.811241,2.03517 -2.791503,1.36795 -8.994339,8.60329 -11.299091,13.17991 -0.7063674,1.40265 -1.1540915,2.86854 -1.3658043,4.4717 -0.1690129,1.27987 -0.1105065,3.93471 0.1148873,5.21312 0.651344,3.69442 2.076194,7.17251 4.320972,10.54755 1.631204,2.45254 3.027265,4.02961 4.667779,5.27301 0.994938,0.75411 1.94084,1.27377 3.625042,1.99157 2.12565,0.90592 3.755506,1.89137 3.646876,2.20497 -0.06426,0.18558 -0.944166,0.0978 -2.02114,-0.2016 -1.81337,-0.50412 -2.061785,-0.39404 -1.292769,0.57281 0.243276,0.30587 0.812922,0.95838 1.265885,1.45003 1.20746,1.31058 1.886824,2.17882 2.926029,3.73947 1.584014,2.37884 2.8639,4.645 3.99977,7.08193 1.643439,3.5259 3.37533,6.28286 5.722242,9.10907 2.341593,2.81981 9.507535,9.47843 12.510232,11.62455 5.389215,3.85184 18.42806,11.00473 24.560725,13.47362 3.960104,1.59424 10.028883,4.4063 18.608888,8.62267 5.982811,2.94006 9.752814,4.66147 13.485804,6.15772 3.21829,1.28995 4.76503,1.78848 6.25319,2.01548 3.05895,0.46662 8.42906,1.67821 15.25628,3.44211 12.49891,3.22926 15.60258,3.88994 20.98208,4.46647 4.9304,0.52841 15.26557,0.84078 20.04035,0.6057 z m -8.7394,-14.44226 c -3.93018,-0.0561 -15.55172,-0.43411 -19.32462,-0.62855 -11.22764,-0.57861 -20.52602,-1.89781 -34.54322,-4.90076 -7.600029,-1.62819 -8.928373,-1.93906 -11.714676,-2.74157 -10.36706,-2.98592 -17.991822,-6.05629 -30.211837,-12.16581 -7.618636,-3.809 -12.812114,-6.73272 -14.032007,-7.89943 -1.009637,-0.96562 0.70064,-0.36792 5.028916,1.7575 1.118797,0.54939 2.593571,1.29584 3.277277,1.65876 11.439673,6.0725 20.163923,10.09632 28.62906,13.20437 4.761761,1.74831 7.735788,2.52373 18.269867,4.76355 21.3854,4.5471 26.61485,5.18698 47.99135,5.87234 6.87746,0.2205 9.68388,0.2584 11.77957,0.15908 5.21499,-0.24714 6.58586,-0.71906 12.58381,-4.33201 3.26697,-1.96792 4.65025,-2.9461 5.63037,-3.98154 1.08941,-1.15088 1.34498,-1.83448 1.68879,-4.51708 0.14956,-1.16697 0.18276,-1.32962 0.25636,-1.25601 0.0179,0.0179 0.075,0.99863 0.12703,2.17938 0.10646,2.41944 0.0638,2.9472 -0.30174,3.72733 -0.56747,1.21128 -1.52983,1.98978 -5.52789,4.47179 -5.56452,3.4545 -6.83335,3.99691 -10.33964,4.42011 -1.0465,0.1263 -5.01418,0.26764 -6.81823,0.24289 -0.60083,-0.008 -1.70268,-0.0236 -2.44854,-0.0343 z m -17.70482,-6.27562 c -6.38956,-0.21774 -12.14489,-0.49465 -19.58831,-0.94249 -7.99759,-0.48116 -11.99142,-0.95038 -15.76493,-1.85213 -4.96292,-1.18599 -14.809948,-4.79772 -24.278087,-8.9048 -5.224732,-2.26639 -7.90509,-3.51839 -12.619391,-5.89455 -4.371505,-2.20338 -6.89223,-3.56965 -8.494545,-4.60414 -1.028767,-0.66421 -0.999588,-0.78633 0.09889,-0.41383 1.937487,0.65699 6.277848,2.58573 11.974304,5.32103 8.673916,4.165 17.843116,8.0029 26.406546,11.05286 9.115863,3.24672 11.070003,3.55162 28.139353,4.39058 21.6083,1.06204 26.54794,1.1046 30.74576,0.26486 3.52159,-0.70446 6.73262,-1.94377 9.7493,-3.76279 1.23076,-0.74214 2.25568,-1.50035 3.72931,-2.7589 1.58402,-1.35282 2.38621,-1.94723 3.0665,-2.27226 0.74027,-0.35368 0.86279,-0.2553 0.51782,0.41581 -0.2768,0.53845 -1.04415,1.45014 -2.16233,2.56908 -1.61268,1.61375 -2.93101,2.53846 -5.60334,3.93031 -3.53356,1.84042 -6.69047,2.7148 -11.52697,3.19268 -2.63006,0.25987 -10.39424,0.40484 -14.38987,0.26868 z m -16.59634,-6.62989 c -0.71633,-0.0304 -1.31905,-0.072 -1.33941,-0.0924 -0.0545,-0.0545 1.23522,-0.12913 3.62122,-0.20974 4.34534,-0.14682 15.57872,-0.062 17.1021,0.12922 l 0.45204,0.0567 -0.56505,0.0607 c -0.73719,0.0791 -17.57638,0.12766 -19.2709,0.0556 z m 1.45307,-5.01794 c -6.75696,-0.21188 -9.75093,-0.37808 -14.20152,-0.78834 -8.05039,-0.7421 -16.258831,-2.44095 -23.505033,-4.86471 -4.059574,-1.35787 -7.553153,-2.89245 -10.435474,-4.58386 -6.671607,-3.91507 -16.020367,-11.04688 -20.455697,-15.60485 -1.265557,-1.30055 -2.531373,-2.76801 -4.63922,-5.37826 -1.662737,-2.05903 -4.026713,-5.29092 -5.868942,-8.02367 -3.63048,-5.38541 -5.316249,-7.68896 -6.64112,-9.07492 -1.051578,-1.10004 -1.231399,-1.56429 -0.936262,-2.41711 0.588477,-1.70045 -0.582929,-4.89857 -2.065427,-5.63898 -0.194399,-0.0971 -0.528503,-0.22429 -0.742471,-0.28269 -0.401542,-0.10961 -3.018504,-0.2902 -3.137702,-0.21653 -0.0962,0.0595 -2.126258,-0.10656 -2.751118,-0.22502 -1.061597,-0.20125 -1.777226,-0.60481 -1.89342,-1.06776 -0.113371,-0.45172 0.207152,-1.0737 0.743459,-1.44269 0.178214,-0.12261 0.645467,-0.33237 1.038357,-0.46613 1.169868,-0.39829 4.655585,-1.80033 5.385383,-2.16613 0.958475,-0.48043 1.445746,-0.83099 2.025591,-1.45727 0.634589,-0.68543 1.142866,-1.69079 1.519729,-3.00607 0.54941,-1.91744 0.733221,-2.46335 1.038846,-3.08528 0.379867,-0.77297 0.995028,-1.47327 1.389973,-1.58232 0.801168,-0.22122 1.7092,0.65097 2.03576,1.95538 0.199848,0.79826 0.402859,1.14991 1.018947,1.7649 1.290265,1.288 3.854198,2.82154 8.826654,5.27943 4.642702,2.29491 10.097508,4.6064 16.12268,6.83205 3.371707,1.24549 6.549225,2.29032 14.013177,4.60783 20.97975,6.51405 29.45319,8.4467 42.00185,9.57998 9.31491,0.84123 16.48271,0.79371 22.52655,-0.14936 7.94801,-1.24019 16.57667,-4.82469 21.2385,-8.82288 1.28895,-1.10546 2.00849,-2.03259 2.68442,-3.45898 0.77039,-1.62566 1.29205,-3.66368 1.61989,-6.32853 0.33207,-2.69922 0.90703,-4.42054 1.62471,-4.86408 0.20873,-0.12901 0.34485,-0.15665 0.63445,-0.12882 0.89642,0.0861 1.48231,1.07618 1.80823,3.0556 0.19092,1.15952 0.39523,1.87219 0.75997,2.65089 0.24756,0.52856 0.40552,0.74222 0.91902,1.24311 0.87361,0.85216 1.24843,1.60321 1.78058,3.56794 0.39459,1.45682 0.85039,3.93984 1.10183,6.00233 0.0203,0.16574 0.0686,0.53867 0.10749,0.82873 0.0957,0.71363 0.20282,1.88696 0.33697,3.69164 0.39372,5.29642 0.38068,11.59012 -0.037,17.8555 -0.3617,5.42567 -1.14166,8.48956 -3.23369,12.70301 -2.82706,5.69384 -6.13994,8.26341 -13.30151,10.31706 -2.03706,0.58414 -5.44692,1.22928 -9.92077,1.87699 -4.04671,0.58588 -8.27349,0.94553 -14.26326,1.21368 -1.66804,0.0746 -14.55096,0.1532 -16.27336,0.0992 z m 3.35262,-3.94858 c 2.12215,-0.15956 2.61825,-0.52231 3.04491,-2.22633 0.26522,-1.05928 1.21939,-5.95658 1.36721,-7.01727 0.19726,-1.4154 0.0941,-2.15044 -0.36342,-2.59037 -0.4677,-0.44968 -1.23238,-0.59841 -4.4119,-0.85811 -2.29679,-0.18759 -4.57619,-0.4229 -5.5133,-0.56914 -2.62273,-0.40931 -3.25455,-0.5341 -4.1681,-0.82324 -0.32588,-0.10315 -0.59518,-0.14494 -0.73545,-0.11412 -0.39873,0.0876 -0.70907,0.6834 -0.89071,1.71006 -0.21333,1.20592 -0.45981,5.27325 -0.45762,7.55181 0.003,2.84394 0.32012,4.13122 1.09878,4.45657 0.47985,0.20049 2.38375,0.39629 4.92709,0.50671 1.33217,0.0579 5.20437,0.041 6.10251,-0.0266 z m 12.65706,-0.11301 c 1.44754,-0.20657 2.24508,-0.48768 2.70388,-0.95303 0.83822,-0.85017 2.43761,-3.70303 3.57648,-6.37941 1.35473,-3.18365 1.19661,-3.447 -2.24969,-3.74693 -1.7201,-0.14972 -4.63133,-0.11115 -5.51766,0.073 -1.1255,0.23393 -1.30754,0.39063 -1.74952,1.50584 -0.71006,1.79166 -1.74545,6.59975 -1.76227,8.18353 -0.0106,0.99498 0.24106,1.30809 1.15646,1.43902 0.5917,0.0846 2.90992,0.011 3.84232,-0.12209 z m 12.22897,-1.27751 c 1.86255,-0.31872 2.85061,-0.62922 3.33516,-1.04808 l 0.29237,-0.25272 -0.0897,-0.42767 c -0.20665,-0.98521 0.28109,-2.44835 1.97351,-5.92025 1.14853,-2.35615 1.36632,-2.89661 1.28991,-3.20107 -0.0418,-0.16645 -0.0877,-0.18922 -0.38127,-0.18922 -0.18357,0 -0.95422,0.14916 -1.71254,0.33147 -1.25799,0.30244 -2.1722,0.4777 -3.18692,0.61095 -0.54975,0.0722 -1.06924,0.62555 -1.64572,1.75305 -0.51544,1.00809 -0.59915,1.22373 -1.5567,4.00976 -0.40588,1.18095 -0.85999,2.48178 -1.00913,2.89073 -0.34816,0.95473 -0.35345,1.24565 -0.0275,1.51983 0.23839,0.20058 0.25845,0.20389 0.94685,0.1555 0.38681,-0.0272 1.18412,-0.13172 1.77179,-0.23228 z m -42.79269,0.0305 c 0.32395,-0.09 0.83415,-0.51631 0.99876,-0.8346 0.16167,-0.31264 0.38583,-1.35534 0.47536,-2.21121 0.23761,-2.27121 0.35516,-8.34123 0.178,-9.19144 -0.13306,-0.63854 -0.49781,-1.34305 -0.83135,-1.60571 -0.60807,-0.47887 -1.30254,-0.74351 -3.30574,-1.25969 -3.56878,-0.91961 -6.89974,-1.93962 -10.497627,-3.21459 -3.593618,-1.27346 -4.357834,-1.51105 -4.985328,-1.5499 -0.540369,-0.0334 -0.590273,-0.0234 -0.767,0.15327 -0.266517,0.26651 -0.328975,0.59872 -0.379189,2.01706 -0.06416,1.81178 -0.313747,3.11088 -0.872098,4.53896 -0.167635,0.42875 -0.427526,0.98081 -0.57753,1.22678 -0.150013,0.24597 -0.503187,0.90491 -0.784832,1.46431 -1.227447,2.43782 -1.69937,3.86834 -1.509181,4.57466 0.111085,0.41253 0.661023,0.91133 1.38199,1.25345 2.166892,1.02828 9.957375,3.12965 15.132075,4.08168 2.94745,0.54226 5.56808,0.77235 6.34369,0.55697 z m 52.18619,-1.90731 c 0.71792,-0.1166 2.5147,-0.57404 3.88,-0.9878 1.84088,-0.55788 3.46314,-1.39195 3.85607,-1.98256 0.32636,-0.49053 0.0858,-0.62609 -1.21853,-0.68673 -1.09753,-0.051 -1.2832,-0.12544 -1.51745,-0.60801 -0.33132,-0.68253 -0.19829,-1.89788 0.46059,-4.20762 0.41886,-1.4684 0.51316,-2.14411 0.32541,-2.33186 -0.1918,-0.1918 -0.81222,-0.0599 -1.25093,0.26596 -0.83768,0.62216 -2.4964,3.16243 -3.64616,5.58392 -1.32155,2.78335 -2.03899,4.46795 -2.00453,4.70688 0.0127,0.0881 0.10787,0.20303 0.21146,0.25525 0.23018,0.11603 0.13943,0.11678 0.90407,-0.007 z m 10.28768,-4.50939 c 0.11305,-0.13436 0.27162,-0.39711 0.35235,-0.58389 1.78065,-4.11917 3.10255,-7.40505 3.37596,-8.39169 0.29814,-1.07586 0.14357,-1.2311 -0.44054,-0.44244 -1.1637,1.57124 -2.93473,5.06798 -3.57731,7.06309 -0.46694,1.44981 -0.52237,2.13015 -0.19978,2.45274 0.1973,0.1973 0.24985,0.18679 0.48932,-0.0978 z m -90.486725,-1.63754 c 0.43056,-0.30005 0.915566,-1.04726 1.688204,-2.60088 1.608132,-3.23366 2.710613,-6.51388 2.839361,-8.44795 0.03632,-0.54575 0.01706,-0.75438 -0.105257,-1.13887 -0.429383,-1.34995 -1.239173,-1.9368 -3.500505,-2.5368 -2.437212,-0.64666 -6.04526,-2.04384 -10.715953,-4.14962 -3.682051,-1.66006 -4.58693,-2.01576 -5.367132,-2.10977 -0.45404,-0.0547 -0.692397,0.0642 -0.874602,0.43638 -0.111265,0.22729 -0.151869,0.56746 -0.202273,1.69455 -0.03473,0.77559 -0.09969,1.59664 -0.144434,1.82454 -0.245741,1.25162 -0.69622,2.42046 -1.214225,3.15058 -0.183712,0.25892 -0.443064,0.62432 -0.576343,0.812 -0.86164,1.21335 -0.128149,2.01725 5.290085,5.79788 1.924155,1.3426 7.429724,5.01072 8.92775,5.94815 1.40563,0.87962 2.593461,1.51563 2.924302,1.56576 0.361396,0.0548 0.723432,-0.0316 1.031022,-0.24595 z M 61.955846,228.768 c 0.444681,-0.2347 0.784413,-0.69953 0.990617,-1.35539 0.148277,-0.47158 0.169971,-0.70109 0.168674,-1.7843 -0.002,-1.73791 -0.289229,-3.22287 -0.83333,-4.30966 -0.402868,-0.80467 -1.378328,-1.74311 -2.517791,-2.42225 -2.340994,-1.39526 -9.359607,-4.50133 -9.608641,-4.25229 -0.234175,0.23417 4.6723,7.2213 7.528107,10.72051 1.379964,1.69089 2.710873,3.12393 3.208551,3.45479 0.261668,0.17396 0.674625,0.154 1.063813,-0.0514 z m 54.781514,-0.007 c 0.43012,-0.15973 0.77497,-0.53238 0.89393,-0.96602 0.15499,-0.56495 0.008,-3.71602 -0.24207,-5.18058 -0.29093,-1.70555 -1.2436,-2.39278 -4.37834,-3.15841 -2.6161,-0.63897 -13.907798,-2.89931 -15.125007,-3.02768 -0.323507,-0.0341 -0.507817,0.0775 -0.749477,0.45416 -0.327059,0.50968 -0.644159,1.42089 -0.98469,2.82962 -1.216849,5.03398 -1.169679,4.68549 -0.707275,5.22571 1.113577,1.30097 9.354309,3.29689 16.341609,3.95797 0.16574,0.0157 1.26758,0.0214 2.44854,0.0129 1.83472,-0.0134 2.19892,-0.0348 2.50278,-0.14766 z m 18.46847,0.007 c 0.60279,-0.1419 0.91278,-0.30685 1.13306,-0.60292 0.13574,-0.18245 0.15661,-0.30706 0.14501,-0.8664 -0.0219,-1.057 -0.87751,-4.85929 -1.15617,-5.13796 -0.15089,-0.15088 -0.87959,-0.27116 -3.84932,-0.63543 -5.01568,-0.61522 -7.52665,-0.79266 -8.24821,-0.58284 -0.53274,0.15493 -0.8034,0.39187 -1.00962,0.88386 -0.18719,0.44661 -0.18836,0.46372 -0.18836,2.7849 0,2.025 0.0178,2.39308 0.13385,2.76839 0.22482,0.72702 0.69273,1.13502 1.52658,1.3311 0.79284,0.18642 1.7899,0.21774 6.32557,0.19861 3.98688,-0.0169 4.74672,-0.0375 5.18761,-0.14131 z m 11.46246,0.022 c 3.45279,-0.15944 6.53456,-0.52281 8.3627,-0.98606 1.8195,-0.46104 1.96165,-0.83006 1.27336,-3.30567 -0.74818,-2.69103 -1.09353,-3.37926 -1.89579,-3.77793 -0.33354,-0.16575 -0.43862,-0.17696 -1.60009,-0.17071 -1.29555,0.007 -1.83212,0.066 -5.83883,0.64145 -4.69957,0.67506 -5.73915,0.97863 -6.2186,1.81591 -0.17218,0.30066 -0.1847,0.39271 -0.17727,1.30294 0.009,1.08356 0.19344,2.65747 0.37996,3.2396 0.40686,1.26981 1.22644,1.44772 5.71456,1.24047 z m 16.90033,-1.39087 c 2.29149,-0.47965 2.77319,-0.7775 3.41208,-2.10979 0.60483,-1.26127 0.86024,-2.81083 0.85067,-5.16077 -0.007,-1.79894 -0.0562,-2.13044 -0.47943,-3.25482 -0.4488,-1.19219 -0.90045,-1.18929 -3.50325,0.0225 -2.59428,1.20779 -3.50618,1.88891 -3.73257,2.78798 -0.0929,0.36895 -0.0423,0.67481 0.36656,2.21488 0.26437,0.99583 0.49463,2.33748 0.64651,3.76698 0.15625,1.47056 0.39089,2.17637 0.69874,2.10185 0.0738,-0.0179 0.85717,-0.18382 1.74069,-0.36876 z M 173.89,223.97051 c 0.47731,-0.21661 1.72738,-1.18018 1.97557,-1.52279 0.47409,-0.65447 0.44838,-1.3737 -0.11926,-3.33628 -0.73648,-2.54639 -1.68784,-5.05211 -2.37247,-6.24866 -0.29687,-0.5189 -0.80424,-1.09896 -0.95844,-1.09581 -0.35562,0.007 -0.4838,0.63449 -0.52651,2.57617 -0.0688,3.12864 0.50594,8.26469 1.04534,9.34115 0.2314,0.4618 0.43472,0.52268 0.95577,0.28622 z m -83.705757,-0.39595 c 0.355289,-0.37819 0.744537,-1.55502 1.367421,-4.13416 0.699612,-2.89688 0.814809,-3.74941 0.581951,-4.30672 -0.15148,-0.36253 -0.603326,-0.71764 -1.383198,-1.08708 -0.903182,-0.42784 -1.872524,-0.74023 -7.103743,-2.28933 -4.519383,-1.3383 -5.485642,-1.63186 -10.020163,-3.0441 -4.71905,-1.4697 -6.180613,-1.85355 -6.469353,-1.69902 -0.349202,0.18689 -0.683476,1.14564 -0.686609,1.96927 -0.003,0.7526 0.555107,2.03212 1.498564,3.43642 0.832741,1.23953 1.463458,2.00943 2.60343,3.17793 1.084569,1.11173 1.759244,1.69307 2.583941,2.22649 0.7339,0.47468 0.981697,0.56905 1.824346,0.69475 1.600938,0.2388 4.585763,1.21331 8.439831,2.7555 3.064177,1.22611 6.312734,2.44772 6.560251,2.46696 0.02385,0.002 0.115347,-0.0733 0.203331,-0.16691 z m -27.918551,-9.55273 c 0.316351,-0.63915 0.361266,-3.16461 0.09959,-5.59847 -0.207282,-1.92771 -0.502778,-2.70362 -1.352902,-3.55242 -1.00824,-1.00666 -2.245556,-1.73241 -7.313181,-4.28949 -6.157162,-3.10686 -8.334084,-4.06348 -9.606935,-4.22164 -0.554698,-0.069 -0.986975,0.10002 -1.221689,0.47745 -0.15114,0.24305 -0.170719,0.37103 -0.168863,1.10366 0.004,1.39486 0.503506,3.21791 1.38672,5.05624 1.472949,3.06581 3.135557,4.35098 9.987472,7.72009 4.194978,2.0627 7.745497,3.65716 7.985999,3.58635 0.04141,-0.0122 0.133159,-0.13899 0.203819,-0.28177 z m 116.219438,-3.40792 c 0.0858,-1.03709 -1.59048,-3.93078 -1.94892,-3.36425 -0.0974,0.15394 -0.0878,0.32324 0.0481,0.85125 0.22973,0.89259 0.90669,2.15285 1.41395,2.63223 0.29712,0.28078 0.45707,0.24162 0.48692,-0.11923 z m -150.815803,3.44257 c -1.981973,-0.52725 -5.631443,-2.09494 -7.16189,-3.0765 -1.161616,-0.74501 -2.781334,-2.61247 -3.49822,-4.03328 -0.616538,-1.22195 -0.933867,-2.63297 -1.313705,-5.84149 -0.329424,-2.78266 -0.410153,-4.41582 -0.409644,-8.28737 5.68e-4,-4.94737 0.125944,-6.46137 0.672948,-8.1313 0.412319,-1.2587 1.58602,-3.23008 2.873949,-4.82711 1.504452,-1.86555 3.852551,-3.7991 5.15977,-4.24885 0.860043,-0.29589 2.488323,-0.55308 4.919896,-0.77708 1.187721,-0.10942 9.834016,-0.13164 10.994873,-0.0282 1.265637,0.11272 0.875461,0.1666 -4.408766,0.60885 -7.322661,0.61285 -11.150125,1.14948 -12.095578,1.69586 -1.033746,0.59738 -3.046374,2.89939 -4.676351,5.34869 -1.440597,2.16472 -1.944682,3.4086 -2.259317,5.57513 -0.15644,1.07712 -0.221832,6.2657 -0.10431,8.27498 0.215345,3.68152 0.704073,7.04234 1.261725,8.67644 0.263513,0.77219 0.849465,1.89337 1.305981,2.49892 0.878404,1.16516 2.219102,2.1685 4.519612,3.38232 3.913912,2.06513 5.453679,3.00472 5.308635,3.23941 -0.06357,0.10277 -0.610939,0.0779 -1.089608,-0.0494 z m 105.268423,0.0448 c -2.02028,-0.21247 -3.69726,-0.85545 -4.71552,-1.80799 -0.63903,-0.59777 -0.91749,-1.14951 -0.91262,-1.80829 0.005,-0.62582 0.23711,-1.0947 0.81269,-1.63905 0.47542,-0.44963 0.6765,-0.5458 1.14119,-0.5458 0.43381,0 0.85995,0.19399 1.5458,0.70368 1.16879,0.86858 1.79094,1.02689 2.91677,0.74219 1.3307,-0.33651 2.60426,-1.14725 4.22259,-2.6881 1.8729,-1.78324 3.78967,-4.32767 4.31402,-5.72669 0.28578,-0.76252 0.2199,-1.50641 -0.21281,-2.40288 -0.65484,-1.35664 -1.80594,-2.45653 -2.57092,-2.45653 -0.29416,0 -1.34543,-0.5442 -2.12926,-1.10223 -0.85436,-0.60825 -2.22707,-1.97659 -2.66008,-2.65164 -0.85121,-1.32698 -1.16546,-2.91247 -1.16736,-5.88959 -0.002,-2.79864 -0.23127,-3.88759 -0.99355,-4.71456 -0.38553,-0.41825 -0.93862,-0.76585 -2.37531,-1.49282 -1.47282,-0.74525 -2.41902,-1.36873 -3.05,-2.00975 -0.90718,-0.92162 -0.86549,-1.38512 0.17055,-1.89621 0.73181,-0.36102 1.69174,-0.55646 3.04566,-0.62013 1.34866,-0.0634 2.21822,-0.20811 3.17566,-0.52845 1.3843,-0.46317 2.32584,-1.01836 4.37581,-2.58023 2.21548,-1.68799 4.9294,-3.1051 7.03938,-3.67571 1.33857,-0.36199 4.18472,-0.75577 6.84328,-0.9468 1.91575,-0.13766 6.27113,-0.11253 7.64126,0.0441 2.81978,0.32231 4.75388,1.14155 6.64978,2.81667 1.20533,1.06498 1.98232,2.17003 1.98232,2.81929 0,0.78669 -0.88451,1.91361 -1.84582,2.35168 -1.22645,0.5589 -4.73992,1.10723 -10.35921,1.61671 -4.44696,0.4032 -7.88309,0.88795 -10.77356,1.5199 -2.27263,0.49685 -3.88782,1.04432 -5.42446,1.83863 -1.59066,0.82222 -1.85935,1.37745 -1.78436,3.68721 0.0988,3.0434 0.50825,4.66032 1.47389,5.82065 0.47866,0.57517 0.97877,0.94662 2.78895,2.0714 3.14225,1.95251 5.88413,3.89834 7.73574,5.48984 0.50039,0.43008 1.51988,1.36913 2.26555,2.0868 2.43421,2.34277 3.71519,3.13164 5.5213,3.4002 1.14836,0.17075 2.93356,1.05271 4.31626,2.13241 0.82782,0.6464 1.56534,1.44612 1.56534,1.69732 0,0.18025 -0.0147,0.18612 -0.35787,0.14333 -0.45767,-0.0571 -1.18649,-0.37347 -3.10775,-1.34924 -3.07526,-1.56186 -6.66014,-2.92149 -7.70299,-2.92149 -0.7209,0 -1.23084,0.32771 -1.84146,1.18341 -0.75713,1.06103 -1.38312,1.22765 -2.13868,0.56927 -0.64452,-0.56161 -1.07521,-0.59081 -1.94138,-0.1316 -0.85799,0.45487 -1.76423,1.25743 -4.60769,4.0805 -1.51244,1.5016 -2.98736,2.92654 -3.2776,3.16652 -1.0027,0.82912 -1.76226,1.25871 -2.63656,1.49119 -0.54353,0.14453 -2.09355,0.20372 -2.95697,0.1129 z m 24.77364,-40.98367 c 1.08257,-0.0702 1.35027,-0.1144 1.35027,-0.22317 0,-0.16861 -1.82065,-0.3752 -3.31495,-0.37614 -1.46809,-9.3e-4 -3.08891,0.19593 -3.08891,0.37517 0,0.23035 2.94323,0.36088 5.05359,0.22414 z m -55.79485,36.87368 c -1.154,-0.42903 -2.919045,-1.55751 -3.635602,-2.32444 -1.087632,-1.16408 -1.36768,-2.35746 -1.371842,-5.84591 -0.003,-2.23451 0.212322,-3.33559 0.841263,-4.30869 0.880829,-1.36281 2.469081,-2.24854 4.919581,-2.74353 0.98082,-0.19812 3.86743,-0.20078 4.78407,-0.004 2.32799,0.49872 3.10532,1.62561 1.93124,2.7997 -0.4839,0.48389 -0.94236,0.66675 -2.18601,0.87185 -4.06483,0.67041 -5.34835,1.13091 -5.88131,2.11013 -0.17196,0.31597 -0.21952,0.51424 -0.24942,1.03987 -0.0457,0.80294 0.087,1.38031 0.52131,2.26926 0.26015,0.53245 0.44316,0.77191 1.08584,1.42069 0.48673,0.49137 0.86593,0.95169 1.02401,1.24311 0.22539,0.41551 0.25104,0.52477 0.25104,1.06942 0,0.54778 -0.027,0.66105 -0.27821,1.16776 -0.3218,0.64906 -0.89007,1.25473 -1.22943,1.31033 -0.12384,0.0204 -0.36078,-0.0135 -0.52653,-0.0751 z m -75.470878,-1.19536 c -1.634946,-0.48097 -3.695363,-4.40718 -4.569736,-8.70781 -0.477382,-2.348 -0.448612,-5.12167 0.07664,-7.38328 1.251786,-5.3904 5.123796,-10.49647 9.596797,-12.65538 2.058541,-0.99357 4.026274,-1.31364 8.06134,-1.31122 2.534955,9.9e-4 4.001397,0.112 5.989497,0.45129 2.11118,0.3603 3.017595,0.63131 4.351767,1.30112 5.337374,2.6796 11.965003,4.98407 15.638872,5.43774 0.987733,0.12196 2.653544,0.0545 3.678749,-0.14901 3.051932,-0.60579 6.832586,-2.24505 9.160418,-3.97185 0.320832,-0.23799 0.956679,-0.81146 1.413005,-1.27439 0.456326,-0.46292 1.031661,-0.98316 1.278529,-1.15609 1.237735,-0.86704 2.796832,-0.77988 3.543584,0.19811 0.337856,0.44247 0.378331,0.73291 0.183263,1.31521 -0.602507,1.79865 -3.360042,4.48275 -6.701463,6.523 -2.084726,1.27292 -3.985471,1.97154 -6.647248,2.44316 -0.84708,0.15008 -1.179558,0.16387 -3.975641,0.16486 -2.723506,9.7e-4 -3.172638,-0.0163 -4.181347,-0.16069 -3.273664,-0.4686 -6.547418,-1.34072 -10.095513,-2.68941 -3.208591,-1.21963 -6.122655,-2.54316 -6.931247,-3.14806 -0.561075,-0.41972 -0.673547,-0.47854 -1.261056,-0.65943 -2.065527,-0.636 -5.903329,-0.5905 -9.122299,0.10814 -2.473056,0.53674 -3.822704,1.2742 -5.381941,2.94075 -2.49455,2.66624 -4.675742,6.95497 -4.889929,9.61474 -0.106885,1.3274 0.475405,3.62675 1.777924,7.02071 0.495154,1.29021 0.841622,2.73715 0.888413,3.71018 0.03592,0.74636 0.02355,0.86356 -0.120565,1.14606 -0.368233,0.72179 -1.092034,1.08828 -1.760771,0.89155 z m 159.454168,-0.584 c -0.28946,-0.28945 0.0265,-0.65235 0.94896,-1.08989 2.2525,-1.06844 4.56301,-2.18888 5.81435,-2.8196 3.75707,-1.89367 4.34649,-2.68516 5.53332,-7.43022 1.16808,-4.67008 1.21672,-6.80585 0.22475,-9.86711 -0.80224,-2.47571 -2.3817,-4.68339 -4.02724,-5.62907 -1.7745,-1.01977 -3.0767,-2.00988 -4.63658,-3.52532 -1.6157,-1.56969 -2.14916,-1.87783 -3.68647,-2.12945 -0.89551,-0.14657 -1.8611,-0.1589 -6.70523,-0.0856 -5.81031,0.0878 -7.79025,-0.0388 -8.46666,-0.54145 -0.42242,-0.31392 -0.17773,-0.86249 0.50164,-1.12463 0.4931,-0.19027 1.57306,-0.17446 2.46522,0.036 1.42762,0.3369 4.5741,0.54044 8.36271,0.54097 5.44086,7.4e-4 6.19786,0.24058 9.41841,2.98395 2.35367,2.00491 3.93482,3.12699 4.64753,3.29815 0.41722,0.10019 1.36938,1.50881 2.28962,3.3872 0.68718,1.4027 1.16367,2.69311 1.42368,3.8556 0.19978,0.89324 0.2018,0.93068 0.16906,3.12659 -0.0236,1.58591 -0.0696,2.44911 -0.16069,3.01359 -0.29824,1.84979 -1.10016,5.4949 -1.45028,6.59221 -0.51553,1.61575 -1.9949,3.04438 -4.65968,4.49991 -2.00759,1.09656 -6.00304,2.68953 -7.23261,2.88363 -0.16575,0.0262 -0.38683,0.0633 -0.49129,0.0823 -0.10445,0.0192 -0.23158,-0.007 -0.28252,-0.0578 z m -77.7301,-0.48206 c -0.86519,-0.44905 -1.31844,-1.49887 -1.31844,-3.05376 0,-1.2987 0.26103,-1.84494 1.04493,-2.18666 1.04557,-0.45578 4.80792,-0.69555 7.43078,-0.47356 3.32181,0.28116 6.28352,1.48689 6.36841,2.59262 0.0505,0.65715 -0.14352,0.92767 -0.85643,1.1944 -0.81049,0.30324 -1.35502,0.34242 -4.87159,0.35045 -3.48451,0.008 -3.90636,0.0373 -5.08543,0.35334 -0.55996,0.1501 -0.63479,0.1948 -1.05475,0.63 -0.67759,0.70219 -1.13325,0.86526 -1.65748,0.59317 z m 79.9433,-6.14649 c -0.24611,-0.35136 0.15142,-0.87838 2.17914,-2.88903 0.91935,-0.91162 1.79404,-1.84395 1.94375,-2.07184 0.77502,-1.17978 0.82254,-2.25127 0.27167,-6.12518 -0.42644,-2.99893 -0.79311,-4.49331 -1.31633,-5.36473 -0.55016,-0.9163 -1.06393,-1.30294 -3.20319,-2.41066 -1.69257,-0.87641 -2.39091,-1.31606 -2.84712,-1.79245 -0.35234,-0.36793 -0.30318,-0.53601 0.16553,-0.56593 1.09072,-0.0696 4.32302,1.15903 5.94603,2.26019 0.25926,0.1759 0.53971,0.45348 0.69372,0.68664 0.95642,1.44793 1.99003,7.31274 1.99426,11.31561 0.002,1.5727 -0.16169,2.24231 -0.78032,3.19862 -1.07516,1.66202 -3.46657,3.63314 -4.69462,3.86954 -0.19276,0.0371 -0.2648,0.0145 -0.35252,-0.11078 z M 78.212114,200.38642 c -0.190727,-0.10846 -0.259112,-0.72841 -0.09979,-0.90448 0.209118,-0.23107 0.916065,-0.42569 2.294732,-0.63172 0.865652,-0.12937 2.252093,-0.20737 4.784064,-0.26917 3.853839,-0.0941 5.829914,-0.25998 7.418019,-0.62287 0.84749,-0.19365 1.296861,-0.4648 1.607854,-0.97024 0.311861,-0.50682 0.335042,-0.83853 0.09799,-1.40178 -0.24149,-0.57376 -0.245911,-0.77409 -0.02175,-0.9847 0.604154,-0.56758 1.400083,0.30538 1.468598,1.61071 0.0458,0.87199 -0.114079,1.35125 -0.640227,1.91955 -0.401872,0.43407 -0.817623,0.6825 -1.454777,0.86926 -1.045502,0.30647 -4.216124,0.64692 -8.362704,0.89796 -3.780623,0.22888 -6.360623,0.42767 -6.818236,0.52533 -0.08292,0.0177 -0.206085,5.7e-4 -0.273802,-0.0378 z m 86.085656,-6.07443 c -1.66356,-0.13794 -4.04161,-0.5667 -4.86775,-0.87766 -2.08837,-0.78606 -3.47059,-2.10743 -3.76678,-3.60095 -0.10343,-0.52154 0.0342,-1.07766 0.38753,-1.56536 0.37801,-0.52181 0.85686,-0.63323 1.95614,-0.45512 0.7189,0.11648 1.45829,0.38459 2.77903,1.00774 1.48264,0.69953 1.79605,0.80634 2.49474,0.85026 1.00037,0.0629 1.67575,-0.27813 4.55275,-2.29875 2.48972,-1.74863 3.49002,-2.31717 4.91112,-2.79126 1.48877,-0.49667 3.0493,-0.65365 5.90542,-0.59405 4.73968,0.0989 7.43673,0.93483 9.24182,2.8645 0.55758,0.59604 0.82028,1.03924 0.98241,1.6574 0.10821,0.41257 0.11286,0.54208 0.0323,0.90191 -0.1745,0.77972 -0.9064,1.48603 -1.53987,1.48603 -0.70186,0 -1.83229,-0.42069 -3.14848,-1.17171 -1.30582,-0.74511 -2.49206,-1.15354 -4.17443,-1.43728 -1.08091,-0.1823 -3.36177,-0.18098 -4.3697,0.002 -1.56939,0.28573 -2.25697,0.58969 -2.98006,1.31744 -0.66699,0.67129 -0.9088,1.03853 -1.61566,2.45366 -0.53174,1.06457 -0.64836,1.24344 -0.99029,1.51901 -0.44637,0.35976 -1.09337,0.59823 -1.91028,0.7041 -0.51914,0.0673 -3.17358,0.0861 -3.87999,0.0275 z m -60.27172,-10.68543 c -0.29006,-0.13773 -1.62922,-0.78315 -2.97591,-1.43426 -4.610342,-2.22905 -5.778544,-2.73634 -8.061342,-3.50055 -2.299722,-0.76986 -4.384607,-1.25985 -6.870885,-1.61477 -2.008337,-0.28671 -3.232312,-0.36845 -5.484823,-0.36631 -3.401315,0.003 -5.472809,0.23221 -9.718809,1.07432 -2.61756,0.51913 -4.380187,0.67855 -5.547121,0.50166 -1.261905,-0.19127 -2.225729,-0.65231 -3.066842,-1.46704 -1.154241,-1.11802 -1.276273,-1.86183 -0.551914,-3.36405 1.23074,-2.55238 5.038576,-5.83706 8.571383,-7.39375 3.106817,-1.36899 8.322778,-2.42882 13.477568,-2.73852 1.529,-0.0919 6.577176,-0.0886 7.571635,0.005 1.315681,0.12372 1.592386,0.15881 2.647936,0.3357 1.354229,0.22696 2.096681,0.4174 3.232821,0.82922 6.142003,2.22631 13.909373,7.50622 14.791793,10.05481 0.13991,0.40409 0.18197,1.38788 0.0946,2.21316 -0.11357,1.07319 -0.38608,1.61121 -1.30066,2.56799 -0.84641,0.88544 -2.1912,1.98124 -3.42296,2.7892 -1.59071,1.0434 -2.74815,1.77194 -2.80438,1.76521 -0.0301,-0.004 -0.29208,-0.11924 -0.58214,-0.25697 z m 1.35617,-5.77157 c 0.18558,-0.0872 0.51939,-0.35515 0.74178,-0.59535 0.99006,-1.06939 0.66397,-1.86854 -1.47885,-3.62425 -1.51203,-1.23888 -2.7707,-2.03699 -4.858493,-3.08074 -2.06381,-1.03176 -3.453394,-1.57802 -5.518671,-2.16946 -2.193127,-0.62805 -3.225566,-0.73222 -3.537078,-0.35687 -0.0498,0.0601 -0.138507,0.52058 -0.197074,1.02343 -0.122441,1.0512 -0.245521,1.62226 -0.570904,2.64879 -0.266038,0.8393 -0.251588,1.16533 0.06257,1.41247 0.267844,0.21068 0.589575,0.28297 1.649955,0.37073 1.699539,0.14065 3.205258,0.62263 5.706025,1.82652 2.86343,1.37848 4.92238,2.26563 5.91699,2.54949 0.71434,0.20388 1.6444,0.20175 2.08374,-0.005 z M 67.990757,174.05 c 1.334621,-0.3302 2.131467,-0.58397 2.822488,-0.89888 0.716356,-0.32645 1.437772,-0.83335 1.581459,-1.1112 0.102024,-0.19731 0.100408,-0.2314 -0.01716,-0.36128 -0.183991,-0.2033 -0.578977,-0.2942 -1.274957,-0.29339 -1.25403,10e-4 -2.498711,0.50282 -3.356988,1.35224 -0.450738,0.44609 -1.059492,1.24888 -1.174708,1.54913 -0.05199,0.13543 -0.149983,0.15177 1.41982,-0.23662 z m -11.815839,5.52881 c -0.03133,-0.0508 -0.08233,-0.27851 -0.11319,-0.50615 -0.107264,-0.79045 0.323666,-1.21718 1.371263,-1.3579 0.597218,-0.0802 1.37253,-0.0117 1.518412,0.13416 0.162477,0.16247 -0.41177,0.60548 -1.86496,1.43872 -0.704362,0.40387 -0.8192,0.44056 -0.911525,0.29117 z m -2.814773,-3.25301 c -2.140708,-0.38111 -3.691642,-1.18902 -3.691642,-1.92302 0,-0.20678 0.233617,-0.3437 0.899849,-0.5274 1.392918,-0.38407 6.341853,-1.13824 7.435962,-1.13316 0.464838,0.002 0.502299,0.0132 0.37397,0.11036 -0.07843,0.0594 -1.010755,0.45078 -2.071833,0.86977 -2.868121,1.13257 -3.319468,1.3807 -2.97272,1.63424 0.180598,0.13205 0.459639,0.2054 1.947575,0.51189 1.469506,0.3027 1.51957,0.3171 1.425209,0.4098 -0.124147,0.12199 -2.720991,0.15887 -3.34637,0.0475 z m 82.851665,-6.90092 c -0.10401,-0.24904 -0.35476,-3.47088 -0.35476,-4.55835 0,-3.4338 0.96237,-6.24399 2.37498,-6.93512 0.39162,-0.1916 0.42172,-0.19552 0.60078,-0.0782 0.13775,0.0902 0.1885,0.19011 0.1885,0.37083 0,0.37496 -0.27894,1.12261 -0.60985,1.63459 -0.63661,0.98498 -1.05974,2.01201 -1.4256,3.4603 -0.32774,1.29743 -0.44391,2.13668 -0.53226,3.84576 -0.0868,1.67927 -0.1679,2.43709 -0.24179,2.26018 z m -75.870194,-4.9473 c -0.189899,-0.1899 0.106795,-0.85841 0.716636,-1.61474 2.043184,-2.53392 6.413422,-6.17186 9.805795,-8.16264 1.933675,-1.13477 4.838529,-2.31298 7.972338,-3.23357 2.945738,-0.86536 4.8757,-1.2141 8.577281,-1.54991 3.425513,-0.31075 5.234921,-0.38805 10.095513,-0.43128 4.009911,-0.0356 5.044381,-0.0226 6.392781,0.0804 2.01581,0.15406 3.14937,0.31062 3.77261,0.52105 0.93136,0.31447 0.601,0.47716 -1.19998,0.59096 -1.2552,0.0793 -2.91849,0.0569 -6.705226,-0.0904 -4.230463,-0.16458 -10.861684,0.1525 -14.31453,0.68446 -3.875014,0.597 -8.948017,2.14965 -12.167356,3.72396 -1.929015,0.94333 -4.09955,2.37391 -6.403872,4.22076 -1.047248,0.83933 -1.764383,1.48554 -3.427948,3.08884 -1.608712,1.55044 -2.861725,2.42445 -3.114042,2.17214 z m 108.256814,-0.49986 c -0.21732,-0.28492 -0.45109,-0.79318 -0.91033,-1.97926 -0.70097,-1.8104 -1.4608,-2.9264 -2.80121,-4.11432 -1.65332,-1.4652 -5.52077,-3.70814 -7.75333,-4.49656 -1.08114,-0.38179 -1.71208,-0.47267 -3.57169,-0.51443 -4.24635,-0.0954 -13.90595,0.92535 -17.32812,1.83103 -0.72885,0.19288 -2.00851,0.31608 -2.36192,0.22739 -0.25367,-0.0637 -0.3833,-0.29686 -0.27623,-0.49691 0.45547,-0.85107 4.50091,-1.60193 12.58298,-2.3355 4.11031,-0.37306 5.3498,-0.45443 6.91976,-0.45422 3.19535,4.5e-4 4.26878,0.28009 7.80914,2.03465 2.88332,1.42894 4.07844,2.22118 5.50359,3.64833 0.49324,0.49392 1.01398,1.10776 1.27773,1.50619 0.85186,1.28685 1.31769,2.83232 1.31769,4.37176 0,1.0937 -0.0666,1.21959 -0.40806,0.77185 z m -59.6662,-0.97554 c -0.0595,-0.21754 -0.23253,-1.00579 -0.38459,-1.75165 -0.15205,-0.74586 -0.39648,-1.71209 -0.5432,-2.14717 -0.65079,-1.92997 -1.6899,-3.7983 -2.84929,-5.1231 -0.97552,-1.11471 -1.5027,-1.93894 -1.45506,-2.27497 0.0409,-0.28835 0.39572,-0.26304 0.96635,0.069 0.62607,0.36422 2.30482,2.03003 2.85009,2.82814 0.78997,1.15627 1.41126,2.7169 1.58524,3.98206 0.1874,1.36268 0.19026,4.8133 0.004,4.8133 -0.036,0 -0.11406,-0.17799 -0.17353,-0.39553 z m -54.517333,-0.1524 c 0,-0.38264 1.509471,-2.29592 3.126595,-3.963 2.296199,-2.36711 5.686217,-4.95039 9.455125,-7.205 3.520044,-2.10574 10.93476,-5.20733 14.664322,-6.13411 3.89552,-0.96801 11.486594,-1.93323 17.279686,-2.19714 2.387075,-0.10874 7.490725,-0.0465 9.078435,0.11065 2.16122,0.21397 4.08619,0.5022 6.78056,1.01527 5.10517,0.97214 11.12651,1.58994 16.7254,1.71602 5.27763,0.11885 15.69007,-0.4691 24.18402,-1.36557 1.13745,-0.12005 2.74377,-0.18954 4.39331,-0.19005 2.62885,-8.6e-4 3.66775,0.18636 4.8358,0.87127 1.19839,0.7027 2.06349,1.56961 2.01924,2.02346 -0.0225,0.2309 -0.0267,0.23308 -0.43981,0.22548 -0.45983,-0.008 -0.96318,-0.22949 -2.21554,-0.97282 -1.31674,-0.78155 -1.97886,-0.94201 -4.10491,-0.99487 -1.82173,-0.0453 -2.95651,0.0209 -6.86129,0.40002 -4.82423,0.46841 -7.177,0.63944 -12.01666,0.87351 -2.90762,0.14063 -10.72741,0.11744 -13.56114,-0.0402 -5.87987,-0.32714 -8.58136,-0.6277 -13.63648,-1.51712 -4.27927,-0.75292 -7.09999,-1.05041 -10.81124,-1.1402 -5.251562,-0.12705 -12.424859,0.56159 -18.533544,1.77926 -7.918083,1.57833 -17.343242,5.99731 -23.165732,10.86126 -0.413706,0.34559 -1.464695,1.31961 -2.335526,2.16448 -1.737828,1.68601 -3.077798,2.84476 -3.942162,3.40902 -0.545178,0.3559 -0.918459,0.4658 -0.918459,0.2704 z"
       id="path3724"
       inkscape:connector-curvature="0" />
  </g>
</svg>
